<svg width="306" height="75" viewBox="0 0 306 75" fill="none" xmlns="http://www.w3.org/2000/svg">
<path d="M260.183 67.546L273.234 75L289.617 65.6135L305.907 56.319V41.227L260.183 67.546Z" fill="white"/>
<path d="M273.234 0L263.515 5.6135L276.566 13.0675L286.285 7.54601L273.234 0Z" fill="white"/>
<path d="M306 18.773V26.227L247.225 60L240.653 56.319V18.773L256.018 9.93866L268.606 17.6687L254.722 25.6749L253.704 26.227V41.227L299.428 15L306 18.773Z" fill="white"/>
<path d="M12.2178 19.7853H10.5517C10.3666 19.7853 10.274 19.8773 10.274 20.0614V37.0859C10.274 38.3742 9.90381 39.2945 9.16334 39.8466C8.42287 40.3988 7.49728 40.7669 6.38657 40.7669C5.92377 40.7669 5.46098 40.6748 4.99819 40.5828C4.53539 40.4908 4.0726 40.2147 3.70236 39.9387C3.33212 39.6626 2.96189 39.2945 2.68421 38.7423C2.40653 38.1902 2.31397 37.638 2.31397 36.9018C2.31397 36.0736 2.49909 35.3374 2.77677 34.6012C3.05445 33.865 3.33212 33.3129 3.70236 32.7607C3.70236 32.6687 3.70236 32.5767 3.51724 32.4847L2.0363 31.7485C1.85118 31.6564 1.75862 31.6564 1.66606 31.7485C1.20327 32.3926 0.833031 33.1288 0.555354 34.1411C0.185118 35.0614 0 36.0736 0 37.0859C0 38.0061 0.092559 38.8344 0.462795 39.5706C0.740472 40.3068 1.20327 40.8589 1.75862 41.411C2.31397 41.8712 2.96189 42.2393 3.70236 42.5153C4.44283 42.7914 5.36842 42.8834 6.29401 42.8834C8.33031 42.8834 9.90381 42.3313 10.922 41.319C11.9401 40.3068 12.4955 38.9264 12.4955 37.0859V20.0614C12.4029 19.8773 12.4029 19.7853 12.2178 19.7853Z" fill="white"/>
<path d="M48.3158 35.6135H42.5771C42.392 35.5215 42.2069 35.4295 41.9292 35.3374C41.6515 35.1534 41.3739 34.9693 41.0962 34.6933C40.8185 34.4172 40.6334 34.0491 40.3557 33.589C40.1706 33.1288 40.078 32.5767 40.078 31.9325C40.078 31.0123 40.2631 30.184 40.8185 29.5399C41.3739 28.8957 42.2069 28.6196 43.225 28.6196C44.4283 28.6196 45.4465 29.0798 46.1869 30C46.2795 30.092 46.372 30.092 46.5572 30L47.7604 29.0798C47.9455 28.9877 47.9455 28.8957 47.853 28.7117C47.3902 28.0675 46.7423 27.5153 46.0018 27.1472C45.3539 26.6871 44.4283 26.411 43.4102 26.411C42.2069 26.411 41.2813 26.5951 40.5408 26.9632C39.8004 27.3313 39.245 27.7914 38.8748 28.3436C38.412 28.8957 38.1343 29.4479 37.9492 30.092C37.7641 30.7362 37.6715 31.2883 37.6715 31.8405C37.6715 32.7607 37.8566 33.4049 38.1343 34.0491C38.412 34.6933 38.7822 35.1534 39.1524 35.6135H36.1906C35.9129 35.6135 35.6352 35.6135 35.4501 35.7055H35.3575C34.9873 35.7055 34.6171 35.5215 34.2468 35.1534C33.8766 34.7853 33.6915 34.2331 33.6915 33.3129C33.6915 33.1288 33.6915 32.9448 33.6915 32.7607V32.2086C33.6915 30.1841 33.2287 28.7117 32.3956 27.7914C31.5626 26.8712 30.2668 26.411 28.6933 26.411C27.1198 26.411 25.9165 26.8712 24.9909 27.7914C24.0653 28.7117 23.6951 30.1841 23.6951 32.2086V32.7607C23.6951 32.9448 23.6951 33.0368 23.6951 33.3129C23.6951 33.773 23.6025 34.1411 23.51 34.5092C23.4174 34.7853 23.3249 35.0614 23.1397 35.2454C22.9546 35.4295 22.7695 35.5215 22.5844 35.6135C22.3993 35.7055 22.2141 35.7055 22.029 35.7055H20.9183C20.8258 35.7055 20.8258 35.7055 20.7332 35.7055H19.5299C19.0671 35.7055 18.7895 35.6135 18.6043 35.4295C18.4192 35.2454 18.3267 34.8773 18.3267 34.3252V20.0614C18.3267 19.8773 18.2341 19.7853 18.049 19.7853H16.3829C16.1978 19.7853 16.1053 19.8773 16.1053 20.0614V34.3252C16.1053 35.5215 16.3829 36.3497 16.8457 36.8098C17.3085 37.362 18.1416 37.638 19.2523 37.638H20.6406C20.7332 37.638 20.7332 37.638 20.8258 37.638H21.9365C22.4918 37.638 22.9546 37.546 23.6025 37.454C24.1579 37.2699 24.6207 36.9939 24.9909 36.4417C25.4537 36.9018 26.0091 37.2699 26.657 37.546C27.3049 37.7301 27.9528 37.9141 28.8784 37.9141C29.7114 37.9141 30.3593 37.7301 30.9147 37.7301C31.5626 37.546 32.118 37.1779 32.5808 36.6258C32.7659 36.9018 32.951 37.1779 33.2287 37.2699C33.4138 37.454 33.6915 37.546 33.9691 37.638C34.2468 37.7301 34.5245 37.7301 34.8022 37.8221C35.0798 37.8221 35.3575 37.8221 35.5426 37.8221H36.098C36.3757 37.8221 36.5608 37.8221 36.6533 37.7301H48.3158C48.5009 37.7301 48.5935 37.638 48.5935 37.454V35.8896C48.5935 35.7055 48.5009 35.6135 48.3158 35.6135ZM30.9147 34.9693C30.4519 35.5215 29.7114 35.8896 28.7858 35.8896C27.7677 35.8896 27.0272 35.6135 26.657 34.9693C26.1942 34.4172 26.0091 33.4969 26.0091 32.2086C26.0091 31.1043 26.2867 30.184 26.657 29.5399C27.1198 28.8957 27.8602 28.6196 28.7858 28.6196C29.804 28.6196 30.4519 28.8957 30.9147 29.5399C31.3775 30.184 31.5626 31.1043 31.5626 32.2086C31.6552 33.4049 31.3775 34.3252 30.9147 34.9693Z" fill="white"/>
<path d="M64.8838 19.7853H63.2178C63.0327 19.7853 62.9401 19.8773 62.9401 20.0614V34.2331C62.9401 34.7853 62.8475 35.1534 62.6624 35.3374C62.4773 35.5215 62.1071 35.6135 61.7368 35.6135H58.5898V23.7423C58.5898 23.5583 58.4973 23.4663 58.3122 23.4663H56.6461C56.461 23.4663 56.3684 23.5583 56.3684 23.7423V35.6135H51.1851C51 35.6135 50.9074 35.7055 50.9074 35.8896V37.454C50.9074 37.638 51 37.7301 51.1851 37.7301H62.0145C63.1252 37.7301 63.9583 37.454 64.4211 36.9018C64.8838 36.3497 65.1615 35.5215 65.1615 34.4172V20.0614C65.069 19.8773 65.069 19.7853 64.8838 19.7853Z" fill="white"/>
<path d="M54.7024 21.8098H60.0708C60.1633 21.8098 60.2559 21.7178 60.2559 21.6258V20.8896C60.2559 20.7055 60.1633 20.7055 60.0708 20.7055H57.3866C57.2014 20.5215 57.0163 20.3374 56.8312 20.0614C56.6461 19.7853 56.5535 19.4172 56.5535 19.0491C56.5535 18.681 56.6461 18.3129 56.9238 18.0368C57.1089 17.7608 57.4791 17.5767 58.0345 17.5767C58.3122 17.5767 58.4973 17.5767 58.775 17.7608C58.9601 17.8528 59.2377 17.9448 59.3303 18.2209C59.4229 18.3129 59.5154 18.2209 59.608 18.1289L60.1633 17.6687C60.2559 17.6687 60.2559 17.4847 60.1633 17.3927C59.9782 17.1166 59.7005 16.8405 59.3303 16.7485C58.9601 16.5644 58.5898 16.4724 58.127 16.4724C57.5717 16.4724 57.2014 16.5644 56.8312 16.7485C56.461 16.9325 56.1833 17.1166 55.9982 17.3927C55.8131 17.6687 55.6279 17.9448 55.5354 18.2209C55.4428 18.497 55.4428 18.773 55.4428 19.1411C55.4428 19.5092 55.4428 19.7853 55.5354 20.0614C55.6279 20.3374 55.7205 20.6135 55.9056 20.7976H54.8875C54.7949 20.7976 54.7024 20.8896 54.7024 20.9816V21.7178C54.6098 21.8098 54.6098 21.8098 54.7024 21.8098Z" fill="white"/>
<path d="M70.8076 19.7853H69.1416C68.9564 19.7853 68.8639 19.8773 68.8639 20.0614V37.454C68.8639 37.638 68.9564 37.7301 69.1416 37.7301H70.8076C70.9927 37.7301 71.0853 37.638 71.0853 37.454V20.0614C71.0853 19.8773 70.9927 19.7853 70.8076 19.7853Z" fill="white"/>
<path d="M90.7078 25.8589H92.559C92.7441 25.8589 92.8367 25.7669 92.8367 25.5829V23.6503C92.8367 23.4663 92.7441 23.3743 92.559 23.3743H90.7078C90.5227 23.3743 90.4301 23.4663 90.4301 23.6503V25.5829C90.5227 25.7669 90.5227 25.8589 90.7078 25.8589Z" fill="white"/>
<path d="M87.5608 25.8589H89.412C89.5971 25.8589 89.6896 25.7669 89.6896 25.5829V23.6503C89.6896 23.4663 89.5971 23.3743 89.412 23.3743H87.5608C87.3757 23.3743 87.2831 23.4663 87.2831 23.6503V25.5829C87.2831 25.7669 87.2831 25.8589 87.5608 25.8589Z" fill="white"/>
<path d="M99.2232 26.8712H97.5572C97.372 26.8712 97.2795 26.9632 97.2795 27.1473V34.2332C97.2795 34.7853 97.1869 35.1534 97.0018 35.3375C96.8167 35.5215 96.4464 35.6135 95.9837 35.6135H83.951C83.4882 35.6135 83.2105 35.5215 83.0254 35.3375C82.8403 35.1534 82.7477 34.7853 82.7477 34.2332V28.8037C82.7477 28.6197 82.6552 28.5277 82.47 28.5277H80.804C80.6189 28.5277 80.5263 28.6197 80.5263 28.8037V34.3252C80.5263 35.5215 80.804 36.3497 81.2668 36.8099C81.7296 37.362 82.5626 37.6381 83.6733 37.6381H96.2613C97.4646 37.6381 98.2976 37.362 98.6679 36.8099C99.1307 36.2577 99.4083 35.4295 99.4083 34.3252V27.1473C99.4083 26.9632 99.4083 26.8712 99.2232 26.8712Z" fill="white"/>
<path d="M115.421 26.411C113.848 26.411 112.644 26.8712 111.719 27.7914C110.793 28.7117 110.423 30.1841 110.423 32.2086V32.7607C110.423 32.9448 110.423 33.0368 110.423 33.3129C110.423 33.773 110.33 34.1411 110.238 34.5092C110.145 34.7853 110.053 35.0614 109.868 35.2454C109.682 35.4295 109.497 35.5215 109.312 35.6135C109.127 35.7055 108.942 35.7055 108.757 35.7055H107.554C107.461 35.7055 107.461 35.7055 107.368 35.7055H106.165C105.702 35.7055 105.425 35.6135 105.24 35.4295C105.054 35.2454 104.962 34.8773 104.962 34.3252V20.0614C104.962 19.8773 104.869 19.7853 104.684 19.7853H103.018C102.833 19.7853 102.74 19.8773 102.74 20.0614V34.3252C102.74 35.5215 103.018 36.3497 103.481 36.8098C103.944 37.362 104.777 37.638 105.887 37.638H107.276C107.368 37.638 107.368 37.638 107.461 37.638H108.572C109.127 37.638 109.59 37.546 110.238 37.454C110.793 37.2699 111.256 36.9939 111.626 36.4417C112.089 36.9018 112.644 37.2699 113.292 37.546C113.94 37.7301 114.588 37.9141 115.514 37.9141C116.254 37.9141 116.995 37.7301 117.55 37.638C118.198 37.454 118.753 37.0859 119.123 36.6258C119.586 36.1656 119.864 35.6135 120.142 34.8773C120.327 34.1411 120.512 33.3129 120.512 32.3006C120.512 30.2761 120.049 28.8037 119.216 27.8834C118.29 26.8712 116.995 26.411 115.421 26.411ZM117.642 34.9693C117.18 35.5215 116.439 35.8896 115.514 35.8896C114.495 35.8896 113.755 35.6135 113.385 34.9693C112.922 34.4172 112.737 33.4969 112.737 32.2086C112.737 31.1043 113.015 30.184 113.385 29.5399C113.848 28.8957 114.588 28.6196 115.514 28.6196C116.439 28.6196 117.18 28.8957 117.642 29.5399C118.105 30.184 118.29 31.1043 118.29 32.2086C118.29 33.4049 118.013 34.3252 117.642 34.9693Z" fill="white"/>
<path d="M141.615 24.2945H143.466C143.652 24.2945 143.744 24.2025 143.744 24.0184V22.0859C143.744 21.9018 143.652 21.8098 143.466 21.8098H141.615C141.43 21.8098 141.338 21.9018 141.338 22.0859V24.0184C141.43 24.2025 141.43 24.2945 141.615 24.2945Z" fill="white"/>
<path d="M155.777 19.6933H154.111C153.926 19.6933 153.833 19.7853 153.833 19.9694V34.1412C153.833 34.6933 153.74 35.0614 153.555 35.2454C153.37 35.4295 153 35.5215 152.63 35.5215H150.871C150.686 35.5215 150.501 35.5215 150.316 35.6135C149.668 35.6135 149.205 35.5215 148.835 35.2454C148.465 34.9694 148.187 34.6013 148.187 34.0491V33.589V33.1289C148.187 32.3007 148.094 31.4724 147.909 30.6442C147.724 29.816 147.354 29.0798 146.984 28.5277C146.521 27.8835 145.873 27.4234 145.132 27.0553C144.392 26.6872 143.374 26.5031 142.171 26.5031C141.152 26.5031 140.227 26.6872 139.486 27.0553C138.746 27.5154 138.191 27.9755 137.635 28.6197C137.543 28.7117 137.543 28.8958 137.728 28.9878L138.931 29.908C139.116 30 139.209 30 139.301 29.908C139.672 29.5399 140.134 29.1718 140.597 28.8958C141.06 28.6197 141.615 28.5277 142.263 28.5277C143.004 28.5277 143.559 28.6197 143.929 28.8958C144.392 29.0798 144.762 29.4479 145.04 29.816C145.318 30.2761 145.503 30.7362 145.595 31.2884C145.78 31.8405 145.78 32.4847 145.78 33.1289C145.78 33.589 145.78 34.0491 145.688 34.3252C145.595 34.6013 145.503 34.8773 145.41 35.0614C145.225 35.2454 145.04 35.3375 144.762 35.4295C144.485 35.5215 144.114 35.5215 143.559 35.5215H136.525C136.432 35.5215 136.247 35.4295 136.062 35.4295H135.784C135.044 35.4295 134.488 35.3375 134.118 34.9694C133.655 34.6933 133.47 34.2332 133.47 33.681V31.0123C133.47 29.3559 133.007 28.1596 132.174 27.4234C131.341 26.6872 130.23 26.3191 128.935 26.3191H124.955C124.77 26.3191 124.677 26.4111 124.677 26.5951V28.1596C124.677 28.3436 124.77 28.4356 124.955 28.4356H128.009C130.045 28.4356 130.971 29.3559 130.971 31.1043V33.2209C130.971 33.681 130.971 34.0491 130.878 34.3252C130.786 34.6013 130.693 34.8773 130.601 35.0614C130.416 35.2454 130.23 35.3375 129.953 35.4295C129.675 35.5215 129.305 35.5215 128.75 35.5215H123.659C123.474 35.5215 123.381 35.6135 123.381 35.7976V37.362C123.381 37.5461 123.474 37.6381 123.659 37.6381H129.49C130.323 37.6381 130.971 37.5461 131.526 37.27C132.082 37.0859 132.452 36.7178 132.822 36.0737C133.007 36.6258 133.378 36.9939 133.84 37.27C134.396 37.5461 134.858 37.6381 135.506 37.6381H135.691C135.784 37.6381 135.969 37.7301 136.062 37.7301H144.392C145.225 37.7301 145.873 37.6381 146.428 37.362C146.984 37.178 147.354 36.7178 147.724 36.1657C147.909 36.7178 148.279 37.0859 148.742 37.362C149.298 37.6381 149.76 37.7301 150.408 37.7301H150.964C151.149 37.7301 151.334 37.7301 151.519 37.6381H153.185C154.296 37.6381 155.129 37.362 155.592 36.8099C156.054 36.2577 156.332 35.4295 156.332 34.3252V19.9694C156.054 19.7853 155.962 19.6933 155.777 19.6933Z" fill="white"/>
<path d="M178.269 24.2945H180.12C180.305 24.2945 180.397 24.2025 180.397 24.0184V22.0859C180.397 21.9018 180.305 21.8098 180.12 21.8098H178.269C178.083 21.8098 177.991 21.9018 177.991 22.0859V24.0184C178.083 24.2025 178.083 24.2945 178.269 24.2945Z" fill="white"/>
<path d="M181.323 27.8835C180.49 26.9632 179.194 26.5031 177.621 26.5031C176.973 26.5031 176.325 26.5951 175.677 26.8712C175.029 27.0553 174.474 27.4234 174.011 27.8835C173.548 28.3436 173.178 28.9878 172.9 29.724C172.623 30.4602 172.53 31.2884 172.53 32.3007C172.53 33.3129 172.623 34.1412 172.9 34.8773C173.085 35.6135 173.456 36.1657 173.918 36.5338C174.381 36.9019 174.844 37.27 175.492 37.454C176.047 37.6381 176.788 37.7301 177.528 37.7301H180.397V39.2945C180.397 39.7546 180.212 40.1227 179.75 40.3988C179.287 40.6749 178.546 40.8589 177.528 40.8589H171.697C171.142 40.8589 170.586 40.7669 170.031 40.6749C169.568 40.4908 169.105 40.3068 168.642 40.0307C168.272 39.7546 167.902 39.3865 167.717 38.8344C167.532 38.2823 167.347 37.7301 167.347 36.9939C167.347 36.1657 167.532 35.4295 167.809 34.6933C168.087 33.9571 168.365 33.405 168.735 32.8528C168.828 32.6688 168.828 32.5767 168.642 32.4847L167.162 31.7485C166.976 31.6565 166.884 31.6565 166.791 31.7485C166.328 32.3927 165.958 33.1289 165.588 34.1411C165.218 35.0614 165.033 36.0737 165.033 37.0859C165.033 38.8344 165.588 40.3068 166.699 41.3191C167.809 42.3313 169.383 42.8835 171.419 42.8835H177.621C178.546 42.8835 179.287 42.7915 179.935 42.6074C180.583 42.4234 181.138 42.0553 181.508 41.7792C181.878 41.4111 182.156 41.043 182.341 40.5829C182.526 40.1227 182.619 39.6626 182.619 39.2025V32.2086C182.711 30.1841 182.249 28.8037 181.323 27.8835ZM180.49 35.6135H177.806C176.88 35.6135 176.14 35.4295 175.584 34.8773C175.122 34.3252 174.844 33.497 174.844 32.2086C174.844 31.1043 175.122 30.1841 175.584 29.5399C176.047 28.8958 176.788 28.6197 177.621 28.6197C178.546 28.6197 179.287 28.8958 179.75 29.5399C180.212 30.1841 180.397 31.1043 180.397 32.2086V35.6135H180.49Z" fill="white"/>
<path d="M175.122 24.2945H176.973C177.158 24.2945 177.25 24.2025 177.25 24.0184V22.0859C177.25 21.9018 177.158 21.8098 176.973 21.8098H175.122C174.936 21.8098 174.844 21.9018 174.844 22.0859V24.0184C174.844 24.2025 174.936 24.2945 175.122 24.2945Z" fill="white"/>
<path d="M201.501 24.2945H203.352C203.537 24.2945 203.63 24.2025 203.63 24.0184V22.0859C203.63 21.9018 203.537 21.8098 203.352 21.8098H201.501C201.316 21.8098 201.223 21.9018 201.223 22.0859V24.0184C201.316 24.2025 201.316 24.2945 201.501 24.2945Z" fill="white"/>
<path d="M204.555 22.0859V24.0184C204.555 24.2025 204.648 24.2945 204.833 24.2945H206.684C206.869 24.2945 206.962 24.2025 206.962 24.0184V22.0859C206.962 21.9018 206.869 21.8098 206.684 21.8098H204.833C204.648 21.9018 204.555 21.9018 204.555 22.0859Z" fill="white"/>
<path d="M203.167 21.1657H205.018C205.203 21.1657 205.296 21.0737 205.296 20.8896V18.9571C205.296 18.7731 205.203 18.681 205.018 18.681H203.167C202.982 18.681 202.889 18.7731 202.889 18.9571V20.8896C202.889 21.1657 202.982 21.1657 203.167 21.1657Z" fill="white"/>
<path d="M214.089 40.1227H212.238C212.053 40.1227 211.96 40.2148 211.96 40.3988V42.3313C211.96 42.5154 212.053 42.6074 212.238 42.6074H214.089C214.274 42.6074 214.367 42.5154 214.367 42.3313V40.3988C214.367 40.2148 214.274 40.1227 214.089 40.1227Z" fill="white"/>
<path d="M210.849 40.1227H208.998C208.813 40.1227 208.721 40.2148 208.721 40.3988V42.3313C208.721 42.5154 208.813 42.6074 208.998 42.6074H210.849C211.034 42.6074 211.127 42.5154 211.127 42.3313V40.3988C211.127 40.2148 211.034 40.1227 210.849 40.1227Z" fill="white"/>
<path d="M212.515 36.8098C212.978 36.2577 213.256 35.4295 213.256 34.3252V27.1472C213.256 26.9632 213.163 26.8712 212.978 26.8712H211.312C211.127 26.8712 211.034 26.9632 211.034 27.1472V34.2331C211.034 34.7853 210.942 35.1534 210.757 35.3374C210.572 35.5215 210.201 35.6135 209.831 35.6135H208.258C208.165 35.6135 208.073 35.6135 207.887 35.6135H207.61C206.869 35.6135 206.314 35.5215 205.944 35.1534C205.481 34.8773 205.296 34.4172 205.296 33.865V27.2393C205.296 27.0552 205.203 26.9632 205.018 26.9632H203.352C203.167 26.9632 203.074 27.0552 203.074 27.2393V34.3252C203.074 34.8773 202.982 35.2454 202.797 35.4295C202.612 35.6135 202.241 35.7055 201.871 35.7055H200.02C199.835 35.7055 199.742 35.7055 199.557 35.7976H196.78H193.911H191.042H189.746C189.283 35.7976 189.005 35.7055 188.82 35.5215C188.635 35.3374 188.543 34.9693 188.543 34.4172V20.0614C188.543 19.8773 188.45 19.7853 188.265 19.7853H186.599C186.414 19.7853 186.321 19.8773 186.321 20.0614V34.3252C186.321 35.5215 186.599 36.3497 187.062 36.8098C187.524 37.362 188.358 37.638 189.468 37.638H191.042V37.7301H193.911H194.004H196.873H199.742C200.02 37.7301 200.298 37.638 200.483 37.546H202.241C203.63 37.546 204.555 37.0859 205.018 36.1656C205.203 36.6258 205.573 36.9939 205.944 37.1779C206.407 37.362 206.869 37.546 207.425 37.546C207.61 37.638 207.795 37.638 207.98 37.638H208.073H210.294C211.22 37.638 212.053 37.362 212.515 36.8098Z" fill="white"/>
<path d="M217.328 37.638H218.995C219.18 37.638 219.272 37.546 219.272 37.362V20.0614C219.272 19.8773 219.18 19.7853 218.995 19.7853H217.328C217.143 19.7853 217.051 19.8773 217.051 20.0614V37.454C217.051 37.546 217.143 37.638 217.328 37.638Z" fill="white"/>
<path d="M220.846 43.7117H218.162C217.976 43.5277 217.791 43.3436 217.606 43.0675C217.421 42.7915 217.328 42.4234 217.328 42.0553C217.328 41.6872 217.421 41.3191 217.699 41.043C217.884 40.7669 218.254 40.5829 218.809 40.5829C219.087 40.5829 219.272 40.5829 219.55 40.7669C219.735 40.8589 220.013 40.951 220.105 41.227C220.198 41.3191 220.29 41.227 220.383 41.135L220.938 40.6749C221.031 40.6749 221.031 40.4908 220.938 40.3988C220.753 40.1227 220.475 39.8467 220.105 39.7546C219.735 39.5706 219.365 39.4786 218.902 39.4786C218.347 39.4786 217.976 39.5706 217.606 39.7546C217.236 39.9387 216.958 40.1227 216.773 40.3988C216.588 40.6749 216.403 40.951 216.31 41.227C216.218 41.5031 216.218 41.7792 216.218 42.1473C216.218 42.5154 216.218 42.7915 216.31 43.0675C216.403 43.3436 216.495 43.5277 216.681 43.8037H215.662C215.57 43.8037 215.477 43.8958 215.477 43.9878V44.724C215.477 44.908 215.57 44.908 215.662 44.908H221.031C221.123 44.908 221.216 44.816 221.216 44.724V43.9878C220.938 43.8037 220.846 43.7117 220.846 43.7117Z" fill="white"/>
<path d="M10.4592 65.2454H3.70234C3.60979 65.2454 3.60979 65.2454 3.60979 65.1534V60.8283C3.60979 60.7362 3.60979 60.7362 3.70234 60.7362H9.441C9.62612 60.7362 9.62612 60.6442 9.62612 60.5522V59.2639C9.62612 59.0798 9.53356 59.0798 9.441 59.0798H3.70234C3.60979 59.0798 3.60979 59.0798 3.60979 58.9878V54.8467C3.60979 54.7546 3.60979 54.7546 3.70234 54.7546H10.4592C10.6443 54.7546 10.6443 54.6626 10.6443 54.5706V53.2823C10.6443 53.0982 10.5517 53.0982 10.4592 53.0982H1.94372C1.75861 53.0982 1.75861 53.1902 1.75861 53.2823V66.9939C1.75861 67.178 1.85116 67.178 1.94372 67.178H10.4592C10.6443 67.178 10.6443 67.0859 10.6443 66.9939V65.7056C10.7368 65.3375 10.5517 65.2454 10.4592 65.2454Z" fill="white"/>
<path d="M17.1234 56.9633H15.5499C15.4573 56.9633 15.4573 56.9633 15.4573 56.8712V54.1105C15.4573 53.9265 15.3648 53.9265 15.2722 53.9265H13.9764C13.7913 53.9265 13.7913 54.0185 13.7913 54.1105V56.8712C13.7913 56.9633 13.7913 56.9633 13.6987 56.9633H12.8657C12.6806 56.9633 12.6806 57.0553 12.6806 57.1473V58.1596C12.6806 58.3436 12.7731 58.3436 12.8657 58.3436H13.6987C13.7913 58.3436 13.7913 58.3436 13.7913 58.4357V64.1412C13.7913 65.1534 13.9764 65.8896 14.4392 66.2577C14.8094 66.7179 15.5499 66.9019 16.4755 66.9019H17.3085C17.4936 66.9019 17.4936 66.8099 17.4936 66.7179V65.5215C17.4936 65.3375 17.4011 65.3375 17.3085 65.3375H16.6606C16.1978 65.3375 15.9201 65.2455 15.735 65.0614C15.5499 64.8774 15.4573 64.6013 15.4573 64.0492V58.4357C15.4573 58.3436 15.4573 58.3436 15.5499 58.3436H17.1234C17.3085 58.3436 17.3085 58.2516 17.3085 58.1596V57.1473C17.3085 57.0553 17.216 56.9633 17.1234 56.9633Z" fill="white"/>
<path d="M24.5281 56.7792C23.8802 56.7792 23.2323 56.8712 22.8621 57.1473C22.3993 57.4234 22.029 57.6994 21.8439 58.0675V53.0062C21.8439 52.8221 21.7514 52.8221 21.6588 52.8221H20.363C20.1779 52.8221 20.1779 52.9142 20.1779 53.0062V66.7178C20.1779 66.9019 20.2704 66.9019 20.363 66.9019H21.6588C21.8439 66.9019 21.8439 66.8099 21.8439 66.7178V60.8283C21.8439 60.0921 22.029 59.5399 22.4918 59.0798C22.9546 58.6197 23.4174 58.4356 24.1579 58.4356C24.8984 58.4356 25.4537 58.6197 25.824 59.0798C26.1942 59.5399 26.3793 60.0921 26.3793 60.9203V66.7178C26.3793 66.9019 26.4719 66.9019 26.5644 66.9019H27.7677C27.9528 66.9019 27.9528 66.8099 27.9528 66.7178V60.5522C27.9528 59.4479 27.6751 58.5277 27.0272 57.8835C26.4719 57.1473 25.6388 56.7792 24.5281 56.7792Z" fill="white"/>
<path d="M34.8021 56.7792C34.0617 56.7792 33.4138 56.8712 32.8584 57.0552C32.3031 57.2393 31.8403 57.5154 31.47 57.7914C31.3775 57.8835 31.3775 57.9755 31.47 58.0675L32.0254 58.9878C32.1179 59.0798 32.2105 59.0798 32.3031 58.9878C32.5807 58.8037 32.951 58.6197 33.3212 58.4356C33.6914 58.2516 34.1542 58.2516 34.7096 58.2516C35.6352 58.2516 36.2831 58.4356 36.6533 58.7117C37.0236 58.9878 37.2087 59.5399 37.2087 60.1841V60.9203C37.2087 61.0123 37.2087 61.0123 37.1161 61.0123H34.8021C33.5989 61.0123 32.5807 61.1964 31.9328 61.7485C31.2849 62.2086 30.9147 63.0368 30.9147 64.0491C30.9147 64.5092 31.0072 64.9694 31.1923 65.3375C31.3775 65.7056 31.5626 65.9816 31.9328 66.2577C32.2105 66.5338 32.5807 66.7178 32.951 66.8098C33.3212 66.9939 33.784 66.9939 34.2468 66.9939C34.9873 66.9939 35.6352 66.9019 36.098 66.6258C36.5608 66.3497 36.931 66.0737 37.2087 65.7056V66.6258C37.2087 66.8099 37.3012 66.8098 37.3938 66.8098V66.7178H38.5971C38.7822 66.7178 38.7822 66.6258 38.7822 66.5338V60C38.7822 58.8037 38.412 57.8835 37.8566 57.4233C37.3012 57.0552 36.1905 56.7792 34.8021 56.7792ZM37.1161 63.773C37.1161 64.3252 36.931 64.8773 36.4682 65.1534C36.0054 65.5215 35.3575 65.7056 34.617 65.7056C33.9691 65.7056 33.4138 65.6135 33.0435 65.3375C32.6733 65.0614 32.4882 64.6933 32.4882 64.1411C32.4882 63.589 32.6733 63.1289 33.0435 62.8528C33.4138 62.5767 34.0617 62.4847 34.9873 62.4847H37.0236C37.1161 62.4847 37.1161 62.4847 37.1161 62.5767V63.773Z" fill="white"/>
<path d="M49.7042 57.0552H48.4083C48.2232 57.0552 48.2232 57.1473 48.2232 57.2393V58.1595C47.9455 57.7914 47.6679 57.4233 47.2051 57.1473C46.7423 56.8712 46.0944 56.7792 45.3539 56.7792C44.4283 56.7792 43.7804 56.9632 43.1325 57.3313C42.5771 57.6994 42.1143 58.3436 41.8366 59.0798C41.6515 59.4479 41.6515 59.908 41.559 60.3681C41.559 60.7362 41.4664 61.2884 41.4664 61.9326C41.4664 62.5767 41.4664 63.1289 41.559 63.497C41.6515 63.9571 41.7441 64.3252 41.8366 64.7853C42.1143 65.5215 42.4845 66.1657 43.1325 66.5338C43.6878 66.9019 44.4283 67.0859 45.3539 67.0859C46.0944 67.0859 46.7423 66.9019 47.2051 66.7178C47.6679 66.4418 47.9455 66.1657 48.2232 65.7056V70.3988C48.2232 70.5829 48.3158 70.5829 48.4083 70.5829H49.7042C49.8893 70.5829 49.8893 70.4908 49.8893 70.3988V57.2393C49.9818 57.0552 49.8893 57.0552 49.7042 57.0552ZM48.1306 63.2209C48.0381 63.497 48.0381 63.773 47.9455 64.0491C47.5753 65.0614 46.8348 65.6135 45.7241 65.6135C44.6134 65.6135 43.8729 65.0614 43.5027 64.0491C43.4101 63.773 43.3176 63.497 43.3176 63.1289C43.3176 62.7608 43.225 62.3927 43.225 61.9326C43.225 61.4724 43.225 61.1043 43.3176 60.7362C43.4101 60.4602 43.4101 60.0921 43.5027 59.816C43.8729 58.8037 44.6134 58.3436 45.7241 58.3436C46.9274 58.3436 47.5753 58.8957 47.9455 59.816C48.0381 60.0921 48.1306 60.3681 48.1306 60.6442C48.1306 60.9203 48.2232 61.3804 48.2232 61.8405C48.2232 62.4847 48.2232 62.9448 48.1306 63.2209Z" fill="white"/>
<path d="M67.4755 60.6442C67.2904 60.3682 67.0127 60.1841 66.8276 60.0001C66.5499 59.816 66.3648 59.724 66.0871 59.632C66.6424 59.4479 67.1052 59.0798 67.4755 58.5277C67.8457 58.0675 68.0308 57.4234 68.0308 56.5031C68.0308 55.3988 67.6606 54.4786 67.0127 53.8344C66.2722 53.1902 65.2541 52.8221 63.7731 52.8221H58.6824C58.4973 52.8221 58.4973 52.9142 58.4973 53.0062V66.6258C58.4973 66.8099 58.5898 66.8099 58.6824 66.8099H63.588C65.0689 66.8099 66.1796 66.4418 67.0127 65.7976C67.8457 65.1534 68.2159 64.1412 68.2159 62.7608C68.2159 62.3007 68.1234 61.8406 68.0308 61.4725C67.8457 61.2884 67.6606 60.9203 67.4755 60.6442ZM60.2559 58.8958V54.7547C60.2559 54.6626 60.2559 54.6626 60.3484 54.6626H63.588C64.421 54.6626 64.9764 54.8467 65.4392 55.2148C65.902 55.5829 66.0871 56.135 66.0871 56.8712C66.0871 57.5154 65.902 58.0675 65.4392 58.4356C64.9764 58.8037 64.3285 58.9878 63.588 58.9878H60.3484C60.2559 58.9878 60.2559 58.9878 60.2559 58.8958ZM65.6243 64.6933C65.1615 65.0614 64.5136 65.3375 63.6806 65.3375H60.3484C60.2559 65.3375 60.2559 65.3375 60.2559 65.2455V60.9203C60.2559 60.8283 60.2559 60.8283 60.3484 60.8283H63.6806C64.5136 60.8283 65.1615 61.0123 65.6243 61.4725C66.0871 61.8406 66.2722 62.4847 66.2722 63.1289C66.2722 63.7731 66.0871 64.2332 65.6243 64.6933Z" fill="white"/>
<path d="M78.5825 57.0553H77.2867C77.1016 57.0553 77.1016 57.1473 77.1016 57.2393V63.1289C77.1016 63.8651 76.9165 64.4172 76.4537 64.8774C76.0834 65.3375 75.5281 65.5215 74.7876 65.5215C74.0472 65.5215 73.4918 65.3375 73.1216 64.8774C72.7513 64.4172 72.5662 63.7731 72.5662 62.9449V57.1473C72.5662 56.9633 72.4736 56.9633 72.3811 56.9633H71.0853C70.9002 56.9633 70.9001 57.0553 70.9001 57.1473V63.497C70.9001 64.6013 71.1778 65.5215 71.8257 66.2577C72.4736 66.9019 73.3067 67.27 74.4174 67.27C75.0653 67.27 75.6207 67.178 76.0834 66.9019C76.5462 66.6258 76.9165 66.3498 77.1016 65.8896V66.8099C77.1016 66.9939 77.1942 66.9939 77.2867 66.9939V67.086H78.5825C78.7677 67.086 78.7677 66.9939 78.7677 66.9019V57.3314C78.7677 57.1473 78.6751 57.0553 78.5825 57.0553Z" fill="white"/>
<path d="M86.6352 61.1964L85.6171 61.1044C84.8766 61.0123 84.3212 60.9203 84.0436 60.6442C83.7659 60.4602 83.6733 60.0921 83.6733 59.724C83.6733 59.3559 83.8584 58.9878 84.1361 58.7117C84.4138 58.4356 84.8766 58.3436 85.5245 58.3436C86.0798 58.3436 86.5426 58.4356 87.0054 58.6197C87.4682 58.8037 87.931 58.9878 88.2087 59.1718C88.3013 59.2639 88.3938 59.2639 88.4864 59.1718L89.2269 58.2516C89.3194 58.0675 89.3194 58.0675 89.2269 57.9755C88.7641 57.6995 88.3013 57.4234 87.6533 57.2393C87.098 57.0553 86.3575 56.9633 85.6171 56.9633C84.4138 56.9633 83.5808 57.2393 82.8403 57.7915C82.1924 58.3436 81.9147 59.0798 81.9147 60.0001C81.9147 60.8283 82.0998 61.4725 82.6552 61.9326C83.2105 62.3927 83.8584 62.6688 84.8766 62.8528L85.8947 62.9449C86.7278 63.0369 87.1906 63.1289 87.4682 63.405C87.7459 63.681 87.8385 63.9571 87.8385 64.3252C87.8385 64.7853 87.6534 65.1534 87.2831 65.4295C86.9129 65.7056 86.3575 65.8896 85.6171 65.8896C84.9691 65.8896 84.4138 65.7976 83.951 65.5215C83.3956 65.3375 82.9328 64.9694 82.5626 64.6933C82.47 64.6013 82.3775 64.6013 82.2849 64.6933L81.4519 65.6136C81.3593 65.7056 81.3593 65.7976 81.4519 65.8896C81.637 66.0737 81.9147 66.2577 82.1924 66.4418C82.47 66.6258 82.7477 66.7179 83.118 66.9019C83.4882 66.9939 83.8584 67.178 84.2287 67.27C84.5989 67.362 85.0617 67.362 85.5245 67.362C86.8203 67.362 87.8385 67.086 88.5789 66.4418C89.2268 65.8896 89.5971 65.0614 89.5971 64.0491C89.5971 63.2209 89.3194 62.6688 88.8566 62.1166C88.3938 61.5645 87.6533 61.2884 86.6352 61.1964Z" fill="white"/>
<path d="M93.9473 57.0552H92.559C92.3738 57.0552 92.3738 57.1473 92.3738 57.2393V66.7178C92.3738 66.9019 92.4664 66.9019 92.559 66.9019H93.8548C94.0399 66.9019 94.0399 66.8098 94.0399 66.7178V57.2393C94.1325 57.0552 94.0399 57.0552 93.9473 57.0552Z" fill="white"/>
<path d="M93.9473 52.9142H92.559C92.3738 52.9142 92.3738 53.0062 92.3738 53.0982V54.6627C92.3738 54.8467 92.4664 54.8467 92.559 54.8467H93.9473C94.1325 54.8467 94.1325 54.7547 94.1325 54.6627V53.0982C94.1325 52.9142 94.0399 52.9142 93.9473 52.9142Z" fill="white"/>
<path d="M102.093 56.7792C101.445 56.7792 100.797 56.8712 100.426 57.1473C99.9637 57.4233 99.5934 57.6994 99.4083 58.0675V57.1473C99.4083 56.9632 99.3157 56.9632 99.2232 56.9632H97.9274C97.7423 56.9632 97.7422 57.0552 97.7422 57.1473V66.6258C97.7422 66.8099 97.8348 66.8098 97.9274 66.8098H99.2232C99.4083 66.8098 99.4083 66.7178 99.4083 66.6258V60.7362C99.4083 60 99.5934 59.4479 100.056 58.9878C100.519 58.5276 100.982 58.3436 101.722 58.3436C102.463 58.3436 103.018 58.5276 103.388 58.9878C103.759 59.4479 103.944 60 103.944 60.8283V66.6258C103.944 66.8099 104.036 66.8098 104.129 66.8098H105.425C105.61 66.8098 105.61 66.7178 105.61 66.6258V60.4602C105.61 59.3559 105.332 58.4356 104.684 57.7914C104.036 57.1473 103.111 56.7792 102.093 56.7792Z" fill="white"/>
<path d="M116.532 60.6442C116.532 60.4602 116.439 60.2761 116.439 60.0921C116.439 59.908 116.347 59.724 116.347 59.5399C116.069 58.6197 115.606 57.9755 114.958 57.5154C114.218 57.0553 113.477 56.8712 112.459 56.8712C111.534 56.8712 110.701 57.0553 109.96 57.5154C109.312 57.9755 108.849 58.6197 108.572 59.5399C108.387 59.816 108.387 60.1841 108.294 60.5522C108.294 61.0123 108.201 61.4724 108.201 62.0246C108.201 62.5767 108.201 63.1289 108.294 63.497C108.387 63.8651 108.479 64.2332 108.572 64.5093C108.849 65.4295 109.312 66.0737 109.96 66.5338C110.608 66.9939 111.534 67.178 112.552 67.178C113.477 67.178 114.218 66.9939 114.866 66.7178C115.514 66.4418 116.069 65.9816 116.439 65.5215C116.532 65.4295 116.532 65.3375 116.439 65.2455L115.606 64.5093C115.514 64.4172 115.421 64.4172 115.328 64.5093C115.051 64.7853 114.681 65.0614 114.31 65.2455C113.848 65.4295 113.385 65.5215 112.737 65.5215C112.089 65.5215 111.534 65.3375 111.163 65.0614C110.701 64.7853 110.423 64.3252 110.238 63.7731C110.145 63.589 110.145 63.405 110.145 63.2209C110.145 63.0369 110.145 62.8528 110.145 62.5767C110.145 62.4847 110.145 62.4847 110.238 62.4847H116.532C116.717 62.4847 116.717 62.3927 116.717 62.3007C116.717 61.9326 116.717 61.5645 116.717 61.2884C116.624 61.1043 116.624 60.8283 116.532 60.6442ZM114.773 61.1964H110.145C110.053 61.1964 110.053 61.1964 110.053 61.1043C110.053 60.6442 110.145 60.2761 110.238 60C110.423 59.4479 110.701 59.0798 111.071 58.8037C111.441 58.5277 111.904 58.4356 112.459 58.4356C113.015 58.4356 113.477 58.5277 113.848 58.8037C114.31 59.0798 114.588 59.4479 114.681 60C114.773 60.2761 114.866 60.6442 114.866 61.1043C114.958 61.1964 114.866 61.1964 114.773 61.1964Z" fill="white"/>
<path d="M124.029 61.1964L123.011 61.1044C122.27 61.0123 121.715 60.9203 121.437 60.6442C121.16 60.4602 121.067 60.0921 121.067 59.724C121.067 59.3559 121.252 58.9878 121.53 58.7117C121.808 58.4356 122.27 58.3436 122.918 58.3436C123.474 58.3436 123.936 58.4356 124.399 58.6197C124.862 58.8037 125.325 58.9878 125.603 59.1718C125.695 59.2639 125.788 59.2639 125.88 59.1718L126.621 58.2516C126.713 58.0675 126.713 58.0675 126.621 57.9755C126.158 57.6995 125.695 57.4234 125.047 57.2393C124.492 57.0553 123.751 56.9633 123.011 56.9633C121.808 56.9633 120.975 57.2393 120.234 57.7915C119.586 58.3436 119.309 59.0798 119.309 60.0001C119.309 60.8283 119.494 61.4725 120.049 61.9326C120.604 62.3927 121.252 62.6688 122.27 62.8528L123.289 62.9449C124.122 63.0369 124.584 63.1289 124.862 63.405C125.14 63.681 125.232 63.9571 125.232 64.3252C125.232 64.7853 125.047 65.1534 124.677 65.4295C124.307 65.7056 123.751 65.8896 123.011 65.8896C122.363 65.8896 121.808 65.7976 121.345 65.5215C120.789 65.3375 120.327 64.9694 119.956 64.6933C119.864 64.6013 119.771 64.6013 119.679 64.6933L118.846 65.6136C118.753 65.7056 118.753 65.7976 118.846 65.8896C119.031 66.0737 119.309 66.2577 119.586 66.4418C119.864 66.6258 120.142 66.7179 120.512 66.9019C120.882 66.9939 121.252 67.178 121.622 67.27C121.993 67.362 122.456 67.362 122.918 67.362C124.214 67.362 125.232 67.086 125.973 66.4418C126.621 65.8896 126.991 65.0614 126.991 64.0491C126.991 63.2209 126.713 62.6688 126.25 62.1166C125.788 61.5645 125.047 61.2884 124.029 61.1964Z" fill="white"/>
<path d="M134.211 61.1964L133.192 61.1044C132.452 61.0123 131.897 60.9203 131.619 60.6442C131.341 60.4602 131.249 60.0921 131.249 59.724C131.249 59.3559 131.434 58.9878 131.711 58.7117C131.989 58.4356 132.452 58.3436 133.1 58.3436C133.655 58.3436 134.118 58.4356 134.581 58.6197C135.044 58.8037 135.506 58.9878 135.784 59.1718C135.877 59.2639 135.969 59.2639 136.062 59.1718L136.802 58.2516C136.895 58.0675 136.895 58.0675 136.802 57.9755C136.339 57.6995 135.877 57.4234 135.229 57.2393C134.673 57.0553 133.933 56.9633 133.192 56.9633C131.989 56.9633 131.156 57.2393 130.416 57.7915C129.768 58.3436 129.49 59.0798 129.49 60.0001C129.49 60.8283 129.675 61.4725 130.23 61.9326C130.786 62.3927 131.434 62.6688 132.452 62.8528L133.47 62.9449C134.303 63.0369 134.766 63.1289 135.044 63.405C135.321 63.681 135.414 63.9571 135.414 64.3252C135.414 64.7853 135.229 65.1534 134.858 65.4295C134.488 65.7056 133.933 65.8896 133.192 65.8896C132.544 65.8896 131.989 65.7976 131.526 65.5215C130.971 65.3375 130.508 64.9694 130.138 64.6933C130.045 64.6013 129.953 64.6013 129.86 64.6933L129.027 65.6136C128.935 65.7056 128.935 65.7976 129.027 65.8896C129.212 66.0737 129.49 66.2577 129.768 66.4418C130.045 66.6258 130.323 66.7179 130.693 66.9019C131.064 66.9939 131.434 67.178 131.804 67.27C132.174 67.362 132.637 67.362 133.1 67.362C134.396 67.362 135.414 67.086 136.154 66.4418C136.802 65.8896 137.172 65.0614 137.172 64.0491C137.172 63.2209 136.895 62.6688 136.432 62.1166C135.969 61.5645 135.229 61.2884 134.211 61.1964Z" fill="white"/>
<path d="M150.223 58.9878L149.575 58.8957C148.465 58.7117 147.724 58.4356 147.261 58.0675C146.799 57.6994 146.613 57.1473 146.613 56.5951C146.613 55.951 146.799 55.3988 147.261 54.9387C147.724 54.5706 148.372 54.2945 149.298 54.2945C149.853 54.2945 150.501 54.3865 150.964 54.5706C151.519 54.7546 152.074 55.0307 152.63 55.3988C152.722 55.4908 152.815 55.4908 152.907 55.3988L153.648 54.2945C153.74 54.2025 153.74 54.1105 153.648 54.0184C153.093 53.6503 152.445 53.3743 151.704 53.0982C150.964 52.8221 150.223 52.7301 149.298 52.7301C148.65 52.7301 148.002 52.8221 147.354 53.0062C146.799 53.1902 146.243 53.4663 145.873 53.8344C145.503 54.2025 145.132 54.6626 144.947 55.1227C144.762 55.6749 144.67 56.227 144.67 56.7792C144.67 58.9878 146.058 60.2761 148.835 60.6442L149.575 60.7362C150.131 60.8283 150.593 60.9203 150.964 61.0123C151.334 61.1964 151.612 61.2884 151.889 61.5645C152.167 61.7485 152.352 61.9326 152.445 62.2086C152.537 62.4847 152.63 62.7608 152.63 63.0369C152.63 63.773 152.352 64.3252 151.797 64.7853C151.241 65.2454 150.501 65.4295 149.483 65.4295C148.65 65.4295 147.909 65.2454 147.261 64.9694C146.613 64.6933 145.966 64.3252 145.595 63.9571C145.503 63.8651 145.41 63.8651 145.318 63.9571L144.392 65.0614C144.299 65.1534 144.299 65.2454 144.392 65.3375C144.67 65.6135 144.947 65.7976 145.318 65.9816C145.688 66.1657 146.058 66.4418 146.521 66.5338C146.984 66.7178 147.354 66.8099 147.909 66.9019C148.372 66.9939 148.835 67.0859 149.39 67.0859C150.223 67.0859 150.964 66.9019 151.612 66.7178C152.26 66.5338 152.815 66.1657 153.278 65.7976C153.74 65.4295 154.018 64.9694 154.203 64.5092C154.388 63.9571 154.481 63.405 154.481 62.8528C154.481 61.6565 154.111 60.8283 153.463 60.1841C152.722 59.6319 151.612 59.2638 150.223 58.9878Z" fill="white"/>
<path d="M164.94 60.6442C164.94 60.4602 164.848 60.2761 164.848 60.0921C164.848 59.908 164.755 59.724 164.755 59.5399C164.477 58.6197 164.015 57.9755 163.367 57.5154C162.626 57.0553 161.886 56.8712 160.868 56.8712C159.942 56.8712 159.109 57.0553 158.368 57.5154C157.721 57.9755 157.258 58.6197 156.98 59.5399C156.795 59.816 156.795 60.1841 156.702 60.5522C156.702 61.0123 156.61 61.4724 156.61 62.0246C156.61 62.5767 156.61 63.1289 156.702 63.497C156.795 63.8651 156.887 64.2332 156.98 64.5093C157.258 65.4295 157.721 66.0737 158.368 66.5338C159.016 66.9939 159.942 67.178 160.96 67.178C161.886 67.178 162.626 66.9939 163.274 66.7178C163.922 66.4418 164.477 65.9816 164.848 65.5215C164.94 65.4295 164.94 65.3375 164.848 65.2455L164.015 64.5093C163.922 64.4172 163.829 64.4172 163.737 64.5093C163.459 64.7853 163.089 65.0614 162.719 65.2455C162.256 65.4295 161.793 65.5215 161.145 65.5215C160.497 65.5215 159.942 65.3375 159.572 65.0614C159.109 64.7853 158.831 64.3252 158.646 63.7731C158.554 63.589 158.554 63.405 158.554 63.2209C158.554 63.0369 158.554 62.8528 158.554 62.5767C158.554 62.4847 158.554 62.4847 158.646 62.4847H164.94C165.125 62.4847 165.125 62.3927 165.125 62.3007C165.125 61.9326 165.125 61.5645 165.125 61.2884C165.033 61.1043 165.033 60.8283 164.94 60.6442ZM163.181 61.1964H158.554C158.461 61.1964 158.461 61.1964 158.461 61.1043C158.461 60.6442 158.554 60.2761 158.646 60C158.831 59.4479 159.109 59.0798 159.479 58.8037C159.849 58.5277 160.405 58.4356 160.868 58.4356C161.33 58.4356 161.886 58.5277 162.256 58.8037C162.719 59.0798 162.996 59.4479 163.089 60C163.181 60.2761 163.274 60.6442 163.274 61.1043C163.274 61.1964 163.274 61.1964 163.181 61.1964Z" fill="white"/>
<path d="M173.456 57.0553C173.085 56.8712 172.715 56.8712 172.345 56.8712C171.697 56.8712 171.142 56.9632 170.679 57.2393C170.216 57.5154 169.938 57.8835 169.661 58.2516V57.2393C169.661 57.0553 169.568 57.0553 169.475 57.0553H168.18C167.995 57.0553 167.995 57.1473 167.995 57.2393V66.7178C167.995 66.9019 168.087 66.9019 168.18 66.9019V66.9939H169.475C169.661 66.9939 169.661 66.9019 169.661 66.8099V61.3804C169.661 60.4602 169.846 59.816 170.216 59.2639C170.586 58.7117 171.142 58.4356 171.882 58.4356C172.16 58.4356 172.437 58.4356 172.715 58.5277C172.993 58.6197 173.178 58.7117 173.456 58.8958C173.548 58.9878 173.641 58.9878 173.733 58.8958L174.474 57.8835C174.566 57.7915 174.566 57.6994 174.474 57.6074C174.103 57.3313 173.826 57.1473 173.456 57.0553Z" fill="white"/>
<path d="M183.915 57.0552H182.526C182.341 57.0552 182.341 57.1473 182.249 57.2393L179.75 64.3252L177.158 57.2393C177.065 57.0552 176.973 57.0552 176.88 57.0552H175.492C175.307 57.0552 175.307 57.1473 175.307 57.2393L178.917 66.7178C178.917 66.9019 179.102 66.9019 179.194 66.9019H180.305C180.49 66.9019 180.583 66.8098 180.583 66.7178L184.192 57.2393C184.192 57.0552 184.1 57.0552 183.915 57.0552Z" fill="white"/>
<path d="M187.987 52.9142H186.599C186.414 52.9142 186.414 53.0062 186.414 53.0982V54.6627C186.414 54.8467 186.506 54.8467 186.599 54.8467H187.987C188.172 54.8467 188.172 54.7547 188.172 54.6627V53.0982C188.172 52.9142 188.08 52.9142 187.987 52.9142Z" fill="white"/>
<path d="M187.895 57.0552H186.599C186.414 57.0552 186.414 57.1473 186.414 57.2393V66.7178C186.414 66.9019 186.506 66.9019 186.599 66.9019H187.895C188.08 66.9019 188.08 66.8098 188.08 66.7178V57.2393C188.172 57.0552 188.08 57.0552 187.895 57.0552Z" fill="white"/>
<path d="M192.985 60C193.171 59.4479 193.448 59.0798 193.818 58.8037C194.189 58.5276 194.652 58.4356 195.207 58.4356C195.762 58.4356 196.132 58.5276 196.41 58.7117C196.688 58.8957 197.058 59.1718 197.336 59.5399C197.428 59.6319 197.521 59.6319 197.613 59.5399L198.539 58.8037C198.632 58.7117 198.632 58.6197 198.632 58.5276C198.261 57.9755 197.799 57.6074 197.243 57.2393C196.688 56.9632 195.947 56.7792 195.207 56.7792C194.281 56.7792 193.448 56.9632 192.708 57.4233C191.967 57.8835 191.505 58.5276 191.227 59.4479C191.134 59.724 191.042 60.0921 191.042 60.4602C190.949 60.8283 190.949 61.2884 190.949 61.8405C190.949 62.3927 190.949 62.8528 191.042 63.3129C191.042 63.681 191.227 64.0491 191.227 64.3252C191.505 65.2454 191.967 65.8896 192.708 66.3497C193.448 66.8098 194.189 66.9939 195.207 66.9939C195.947 66.9939 196.688 66.9019 197.243 66.5338C197.799 66.2577 198.261 65.7976 198.632 65.2454C198.724 65.1534 198.724 65.0614 198.539 64.9694L197.613 64.2332C197.521 64.1411 197.428 64.1411 197.336 64.2332C197.058 64.6013 196.78 64.8773 196.41 65.0614C196.132 65.2454 195.67 65.3375 195.207 65.3375C194.652 65.3375 194.189 65.2454 193.818 64.9694C193.356 64.6933 193.078 64.3252 192.985 63.773C192.893 63.497 192.8 63.2209 192.8 62.8528C192.8 62.5767 192.708 62.1166 192.708 61.6565C192.708 61.1964 192.708 60.8283 192.8 60.4602C192.893 60.5522 192.893 60.2761 192.985 60Z" fill="white"/>
<path d="M209.091 60.6442C209.091 60.4602 208.998 60.2761 208.998 60.0921C208.998 59.908 208.906 59.724 208.906 59.5399C208.628 58.6197 208.165 57.9755 207.517 57.5154C206.777 57.0553 206.036 56.8712 205.018 56.8712C204.093 56.8712 203.26 57.0553 202.519 57.5154C201.871 57.9755 201.408 58.6197 201.131 59.5399C200.946 59.816 200.946 60.1841 200.853 60.5522C200.853 61.0123 200.76 61.4724 200.76 62.0246C200.76 62.5767 200.76 63.1289 200.853 63.497C200.946 63.8651 201.038 64.2332 201.131 64.5093C201.408 65.4295 201.871 66.0737 202.519 66.5338C203.167 66.9939 204.093 67.178 205.111 67.178C206.036 67.178 206.777 66.9939 207.425 66.7178C208.073 66.4418 208.628 65.9816 208.998 65.5215C209.091 65.4295 209.091 65.3375 208.998 65.2455L208.165 64.5093C208.073 64.4172 207.98 64.4172 207.887 64.5093C207.61 64.7853 207.24 65.0614 206.869 65.2455C206.407 65.4295 205.944 65.5215 205.296 65.5215C204.648 65.5215 204.093 65.3375 203.722 65.0614C203.26 64.7853 202.982 64.3252 202.797 63.7731C202.704 63.589 202.704 63.405 202.704 63.2209C202.704 63.0369 202.704 62.8528 202.704 62.5767C202.704 62.4847 202.704 62.4847 202.797 62.4847H209.091C209.276 62.4847 209.276 62.3927 209.276 62.3007C209.276 61.9326 209.276 61.5645 209.276 61.2884C209.183 61.1043 209.183 60.8283 209.091 60.6442ZM207.332 61.1964H202.704C202.612 61.1964 202.612 61.1964 202.612 61.1043C202.612 60.6442 202.704 60.2761 202.797 60C202.982 59.4479 203.26 59.0798 203.63 58.8037C204 58.5277 204.463 58.4356 205.018 58.4356C205.573 58.4356 206.036 58.5277 206.407 58.8037C206.869 59.0798 207.147 59.4479 207.24 60C207.332 60.2761 207.425 60.6442 207.425 61.1043C207.425 61.1964 207.425 61.1964 207.332 61.1964Z" fill="white"/>
<path d="M218.809 62.0246C218.347 61.4724 217.514 61.1964 216.588 61.1043L215.57 61.0123C214.829 60.9203 214.274 60.8283 213.996 60.5522C213.719 60.3682 213.626 60.0001 213.626 59.632C213.626 59.2639 213.811 58.8958 214.089 58.6197C214.367 58.3436 214.829 58.2516 215.477 58.2516C216.033 58.2516 216.495 58.3436 216.958 58.5277C217.421 58.7117 217.884 58.8958 218.162 59.0798C218.254 59.1718 218.347 59.1718 218.439 59.0798L219.18 58.1596C219.272 57.9755 219.272 57.9755 219.18 57.8835C218.717 57.6074 218.254 57.3313 217.606 57.1473C217.051 56.9632 216.31 56.8712 215.57 56.8712C214.367 56.8712 213.534 57.1473 212.793 57.6994C212.145 58.2516 211.867 58.9878 211.867 59.908C211.867 60.7362 212.053 61.3804 212.608 61.8405C213.163 62.3007 213.811 62.5767 214.829 62.7608L215.848 62.8528C216.681 62.9448 217.143 63.0369 217.421 63.3129C217.699 63.589 217.791 63.8651 217.791 64.2332C217.791 64.6933 217.606 65.0614 217.236 65.3375C216.866 65.6135 216.31 65.7976 215.57 65.7976C214.922 65.7976 214.367 65.7056 213.904 65.4295C213.348 65.2454 212.886 64.8773 212.515 64.6013C212.423 64.5093 212.33 64.5093 212.238 64.6013L211.405 65.5215C211.312 65.6135 211.312 65.7056 211.405 65.7976C211.59 65.9816 211.867 66.1657 212.145 66.3497C212.423 66.5338 212.701 66.6258 213.071 66.8099C213.441 66.9019 213.811 67.0859 214.181 67.178C214.552 67.27 215.015 67.27 215.477 67.27C216.773 67.27 217.791 66.9939 218.532 66.3497C219.18 65.7976 219.55 64.9694 219.55 63.9571C219.55 63.1289 219.272 62.5767 218.809 62.0246Z" fill="white"/>
</svg>
